{
    "asset" : {
        "generator" : "Khronos glTF Blender I/O v1.2.75",
        "version" : "2.0"
    },
    "scene" : 0,
    "scenes" : [
        {
            "name" : "Scene",
            "nodes" : [
                0,
                1,
                2,
                3,
                4
            ]
        }
    ],
    "nodes" : [
        {
            "name" : "Light",
            "rotation" : [
                0.16907575726509094,
                0.7558803558349609,
                -0.27217137813568115,
                0.570947527885437
            ],
            "translation" : [
                7.983105182647705,
                11.495919227600098,
                -2.4076390266418457
            ]
        },
        {
            "name" : "Camera",
            "rotation" : [
                0.21782177686691284,
                0.7369211912155151,
                -0.5761849284172058,
                0.2784092128276825
            ],
            "translation" : [
                15.647759437561035,
                8.44524097442627,
                -18.45755958557129
            ]
        },
        {
            "mesh" : 0,
            "name" : "Cusion",
            "rotation" : [
                0.006383377593010664,
                0.019217025488615036,
                -0.6728203296661377,
                0.7395287156105042
            ],
            "scale" : [
                3.076660394668579,
                3.076660394668579,
                3.076660394668579
            ],
            "translation" : [
                2.263523578643799,
                9.662715911865234,
                -1.3394243717193604
            ]
        },
        {
            "mesh" : 1,
            "name" : "Plane.002",
            "rotation" : [
                0,
                0,
                -0.5842205286026001,
                0.8115949630737305
            ],
            "scale" : [
                -880.849365234375,
                -880.849365234375,
                -880.849365234375
            ]
        },
        {
            "mesh" : 2,
            "name" : "Plane.001",
            "scale" : [
                -880.849365234375,
                -880.849365234375,
                -880.849365234375
            ]
        }
    ],
    "materials" : [
        {
            "doubleSided" : true,
            "emissiveFactor" : [
                0,
                0,
                0
            ],
            "name" : "FabricUpholsteryBrightAnglePattern001_3K.001",
            "pbrMetallicRoughness" : {
                "metallicFactor" : 0
            }
        },
        {
            "doubleSided" : true,
            "emissiveFactor" : [
                0,
                0,
                0
            ],
            "name" : "Material",
            "pbrMetallicRoughness" : {
                "baseColorFactor" : [
                    1,
                    1,
                    1,
                    1
                ],
                "metallicFactor" : 0,
                "roughnessFactor" : 1
            }
        }
    ],
    "meshes" : [
        {
            "name" : "Plane",
            "primitives" : [
                {
                    "attributes" : {
                        "POSITION" : 0,
                        "NORMAL" : 1,
                        "TEXCOORD_0" : 2
                    },
                    "indices" : 3,
                    "material" : 0
                }
            ]
        },
        {
            "name" : "Plane.002",
            "primitives" : [
                {
                    "attributes" : {
                        "POSITION" : 4,
                        "NORMAL" : 5,
                        "TEXCOORD_0" : 6
                    },
                    "indices" : 7,
                    "material" : 1
                }
            ]
        },
        {
            "name" : "Plane.001",
            "primitives" : [
                {
                    "attributes" : {
                        "POSITION" : 8,
                        "NORMAL" : 9,
                        "TEXCOORD_0" : 10
                    },
                    "indices" : 7,
                    "material" : 1
                }
            ]
        }
    ],
    "accessors" : [
        {
            "bufferView" : 0,
            "componentType" : 5126,
            "count" : 4116,
            "max" : [
                3.172161817550659,
                0.3537031412124634,
                1.3858885765075684
            ],
            "min" : [
                0.7143890857696533,
                -1.2958192825317383,
                -1.249474048614502
            ],
            "type" : "VEC3"
        },
        {
            "bufferView" : 1,
            "componentType" : 5126,
            "count" : 4116,
            "type" : "VEC3"
        },
        {
            "bufferView" : 2,
            "componentType" : 5126,
            "count" : 4116,
            "type" : "VEC2"
        },
        {
            "bufferView" : 3,
            "componentType" : 5123,
            "count" : 23232,
            "type" : "SCALAR"
        },
        {
            "bufferView" : 4,
            "componentType" : 5126,
            "count" : 4,
            "max" : [
                1,
                0,
                1
            ],
            "min" : [
                -1,
                0,
                -1
            ],
            "type" : "VEC3"
        },
        {
            "bufferView" : 5,
            "componentType" : 5126,
            "count" : 4,
            "type" : "VEC3"
        },
        {
            "bufferView" : 6,
            "componentType" : 5126,
            "count" : 4,
            "type" : "VEC2"
        },
        {
            "bufferView" : 7,
            "componentType" : 5123,
            "count" : 6,
            "type" : "SCALAR"
        },
        {
            "bufferView" : 8,
            "componentType" : 5126,
            "count" : 4,
            "max" : [
                1,
                0,
                1
            ],
            "min" : [
                -1,
                0,
                -1
            ],
            "type" : "VEC3"
        },
        {
            "bufferView" : 9,
            "componentType" : 5126,
            "count" : 4,
            "type" : "VEC3"
        },
        {
            "bufferView" : 10,
            "componentType" : 5126,
            "count" : 4,
            "type" : "VEC2"
        }
    ],
    "bufferViews" : [
        {
            "buffer" : 0,
            "byteLength" : 49392,
            "byteOffset" : 0
        },
        {
            "buffer" : 0,
            "byteLength" : 49392,
            "byteOffset" : 49392
        },
        {
            "buffer" : 0,
            "byteLength" : 32928,
            "byteOffset" : 98784
        },
        {
            "buffer" : 0,
            "byteLength" : 46464,
            "byteOffset" : 131712
        },
        {
            "buffer" : 0,
            "byteLength" : 48,
            "byteOffset" : 178176
        },
        {
            "buffer" : 0,
            "byteLength" : 48,
            "byteOffset" : 178224
        },
        {
            "buffer" : 0,
            "byteLength" : 32,
            "byteOffset" : 178272
        },
        {
            "buffer" : 0,
            "byteLength" : 12,
            "byteOffset" : 178304
        },
        {
            "buffer" : 0,
            "byteLength" : 48,
            "byteOffset" : 178316
        },
        {
            "buffer" : 0,
            "byteLength" : 48,
            "byteOffset" : 178364
        },
        {
            "buffer" : 0,
            "byteLength" : 32,
            "byteOffset" : 178412
        }
    ],
    "buffers" : [
        {
            "byteLength" : 178444,
            "uri" : "data:application/octet-stream;base64,"
        }
    ]
}
