{
  "accessors": [
    {
      "bufferView": 1,
      "componentType": 5126,
      "count": 65532,
      "max": [
        1.075240969657898,
        0.4450787901878357,
        1.463930368423462
      ],
      "min": [
        -0.3749404847621918,
        -0.8113885521888733,
        -5.549208641052246
      ],
      "type": "VEC3"
    },
    {
      "bufferView": 1,
      "byteOffset": 786384,
      "componentType": 5126,
      "count": 65532,
      "max": [
        0.9999997019767761,
        0.9998340010643005,
        0.9954667687416077
      ],
      "min": [
        -0.9999997019767761,
        -0.9998767375946045,
        -0.9999707341194153
      ],
      "type": "VEC3"
    },
    {
      "bufferView": 0,
      "componentType": 5125,
      "count": 227991,
      "type": "SCALAR"
    },
    {
      "bufferView": 1,
      "byteOffset": 1572768,
      "componentType": 5126,
      "count": 65532,
      "max": [
        0.8595004081726074,
        0.4299881160259247,
        0.7391692996025085
      ],
      "min": [
        -0.8594920635223389,
        -0.8114060163497925,
        -5.5511908531188965
      ],
      "type": "VEC3"
    },
    {
      "bufferView": 1,
      "byteOffset": 2359152,
      "componentType": 5126,
      "count": 65532,
      "max": [
        0.9999825954437256,
        0.9999993443489075,
        0.9649656414985657
      ],
      "min": [
        -0.9999825954437256,
        -0.9999995231628418,
        -0.9999884366989136
      ],
      "type": "VEC3"
    },
    {
      "bufferView": 0,
      "byteOffset": 911964,
      "componentType": 5125,
      "count": 210858,
      "type": "SCALAR"
    },
    {
      "bufferView": 1,
      "byteOffset": 3145536,
      "componentType": 5126,
      "count": 65532,
      "max": [
        1.8365999460220337,
        0.45554840564727783,
        1.4780522584915161
      ],
      "min": [
        -0.3929642140865326,
        -0.7988874912261963,
        -5.546781063079834
      ],
      "type": "VEC3"
    },
    {
      "bufferView": 1,
      "byteOffset": 3931920,
      "componentType": 5126,
      "count": 65532,
      "max": [
        0.9999812245368958,
        0.999998152256012,
        0.9992005825042725
      ],
      "min": [
        -0.9996720552444458,
        -0.9999863505363464,
        -0.9999707341194153
      ],
      "type": "VEC3"
    },
    {
      "bufferView": 0,
      "byteOffset": 1755396,
      "componentType": 5125,
      "count": 212097,
      "type": "SCALAR"
    },
    {
      "bufferView": 1,
      "byteOffset": 4718304,
      "componentType": 5126,
      "count": 65532,
      "max": [
        0.9631515145301819,
        0.48165997862815857,
        1.0039210319519043
      ],
      "min": [
        -0.3786877393722534,
        -0.5550792813301086,
        -2.038914918899536
      ],
      "type": "VEC3"
    },
    {
      "bufferView": 1,
      "byteOffset": 5504688,
      "componentType": 5126,
      "count": 65532,
      "max": [
        0.999995231628418,
        0.9999759197235107,
        0.9488368630409241
      ],
      "min": [
        -0.9888879656791687,
        -0.9999996423721313,
        -0.9938334822654724
      ],
      "type": "VEC3"
    },
    {
      "bufferView": 0,
      "byteOffset": 2603784,
      "componentType": 5125,
      "count": 298434,
      "type": "SCALAR"
    },
    {
      "bufferView": 1,
      "byteOffset": 6291072,
      "componentType": 5126,
      "count": 65532,
      "max": [
        1.7801858186721802,
        0.3493649363517761,
        0.17513017356395721
      ],
      "min": [
        0.35124582052230835,
        -0.47659409046173096,
        -1.933436393737793
      ],
      "type": "VEC3"
    },
    {
      "bufferView": 1,
      "byteOffset": 7077456,
      "componentType": 5126,
      "count": 65532,
      "max": [
        0.9939488172531128,
        0.9998340010643005,
        0.844036877155304
      ],
      "min": [
        -0.9333990812301636,
        -0.9999987483024597,
        -0.9081941843032837
      ],
      "type": "VEC3"
    },
    {
      "bufferView": 0,
      "byteOffset": 3797520,
      "componentType": 5125,
      "count": 222252,
      "type": "SCALAR"
    },
    {
      "bufferView": 1,
      "byteOffset": 7863840,
      "componentType": 5126,
      "count": 65532,
      "max": [
        1.8897877931594849,
        0.15674827992916107,
        -1.299701452255249
      ],
      "min": [
        1.2596406936645508,
        -0.48020392656326294,
        -2.7127692699432373
      ],
      "type": "VEC3"
    },
    {
      "bufferView": 1,
      "byteOffset": 8650224,
      "componentType": 5126,
      "count": 65532,
      "max": [
        0.9999395608901978,
        0.9999853372573853,
        0.98615962266922
      ],
      "min": [
        -0.9999175071716309,
        -0.9999856948852539,
        -0.999860405921936
      ],
      "type": "VEC3"
    },
    {
      "bufferView": 0,
      "byteOffset": 4686528,
      "componentType": 5125,
      "count": 343587,
      "type": "SCALAR"
    },
    {
      "bufferView": 1,
      "byteOffset": 9436608,
      "componentType": 5126,
      "count": 65532,
      "max": [
        1.5707989931106567,
        0.3542870879173279,
        0.18611319363117218
      ],
      "min": [
        -1.6224960088729858,
        -0.5085844993591309,
        -1.6098690032958984
      ],
      "type": "VEC3"
    },
    {
      "bufferView": 1,
      "byteOffset": 10222992,
      "componentType": 5126,
      "count": 65532,
      "max": [
        0.998691737651825,
        0.9994856715202332,
        0.8702691197395325
      ],
      "min": [
        -0.943909227848053,
        -0.9999988675117493,
        -0.9094889163970947
      ],
      "type": "VEC3"
    },
    {
      "bufferView": 0,
      "byteOffset": 6060876,
      "componentType": 5125,
      "count": 196692,
      "type": "SCALAR"
    },
    {
      "bufferView": 1,
      "byteOffset": 11009376,
      "componentType": 5126,
      "count": 65532,
      "max": [
        -0.7321489453315735,
        0.2947997748851776,
        -0.06404466181993484
      ],
      "min": [
        -1.810870885848999,
        -0.3264274001121521,
        -2.006573438644409
      ],
      "type": "VEC3"
    },
    {
      "bufferView": 1,
      "byteOffset": 11795760,
      "componentType": 5126,
      "count": 65532,
      "max": [
        0.9852273464202881,
        0.9998114109039307,
        0.6384820938110352
      ],
      "min": [
        -0.9937528967857361,
        -0.9999988675117493,
        -0.7203868627548218
      ],
      "type": "VEC3"
    },
    {
      "bufferView": 0,
      "byteOffset": 6847644,
      "componentType": 5125,
      "count": 201012,
      "type": "SCALAR"
    },
    {
      "bufferView": 1,
      "byteOffset": 12582144,
      "componentType": 5126,
      "count": 65532,
      "max": [
        -0.06861568987369537,
        0.48165997862815857,
        0.5276907682418823
      ],
      "min": [
        -1.2240948677062988,
        -0.5443674325942993,
        -1.3478457927703857
      ],
      "type": "VEC3"
    },
    {
      "bufferView": 1,
      "byteOffset": 13368528,
      "componentType": 5126,
      "count": 65532,
      "max": [
        0.9336470365524292,
        0.9999758005142212,
        0.9424483776092529
      ],
      "min": [
        -0.9988723993301392,
        -0.9999997019767761,
        -0.9907103776931763
      ],
      "type": "VEC3"
    },
    {
      "bufferView": 0,
      "byteOffset": 7651692,
      "componentType": 5125,
      "count": 209727,
      "type": "SCALAR"
    },
    {
      "bufferView": 1,
      "byteOffset": 14154912,
      "componentType": 5126,
      "count": 65532,
      "max": [
        -0.018213199451565742,
        0.48165997862815857,
        0.5745235681533813
      ],
      "min": [
        -1.048400640487671,
        -0.5443674325942993,
        -1.879947304725647
      ],
      "type": "VEC3"
    },
    {
      "bufferView": 1,
      "byteOffset": 14941296,
      "componentType": 5126,
      "count": 65532,
      "max": [
        0.928190290927887,
        0.9999758005142212,
        0.9494076371192932
      ],
      "min": [
        -0.9988723993301392,
        -0.9999997019767761,
        -0.9968344569206238
      ],
      "type": "VEC3"
    },
    {
      "bufferView": 0,
      "byteOffset": 8490600,
      "componentType": 5125,
      "count": 204039,
      "type": "SCALAR"
    },
    {
      "bufferView": 1,
      "byteOffset": 15727680,
      "componentType": 5126,
      "count": 65532,
      "max": [
        0.38207703828811646,
        0.47668927907943726,
        1.4487577676773071
      ],
      "min": [
        -0.8151752352714539,
        -0.7621345520019531,
        -5.551300525665283
      ],
      "type": "VEC3"
    },
    {
      "bufferView": 1,
      "byteOffset": 16514064,
      "componentType": 5126,
      "count": 65532,
      "max": [
        0.9999933242797852,
        0.9999992251396179,
        0.9987345337867737
      ],
      "min": [
        -0.9999997019767761,
        -0.9999845623970032,
        -0.9999326467514038
      ],
      "type": "VEC3"
    },
    {
      "bufferView": 0,
      "byteOffset": 9306756,
      "componentType": 5125,
      "count": 262092,
      "type": "SCALAR"
    },
    {
      "bufferView": 1,
      "byteOffset": 17300448,
      "componentType": 5126,
      "count": 65532,
      "max": [
        0.8570528626441956,
        0.415019690990448,
        0.6071326732635498
      ],
      "min": [
        -0.8594920635223389,
        -0.8104557991027832,
        -5.551300525665283
      ],
      "type": "VEC3"
    },
    {
      "bufferView": 1,
      "byteOffset": 18086832,
      "componentType": 5126,
      "count": 65532,
      "max": [
        0.9999773502349854,
        0.9999964237213135,
        0.9649656414985657
      ],
      "min": [
        -0.9999967217445374,
        -0.9999969005584717,
        -0.9999463558197021
      ],
      "type": "VEC3"
    },
    {
      "bufferView": 0,
      "byteOffset": 10355124,
      "componentType": 5125,
      "count": 252069,
      "type": "SCALAR"
    },
    {
      "bufferView": 1,
      "byteOffset": 18873216,
      "componentType": 5126,
      "count": 65532,
      "max": [
        0.7968068718910217,
        0.4450787901878357,
        1.4783804416656494
      ],
      "min": [
        -1.8897793292999268,
        -0.8114060163497925,
        -5.550252914428711
      ],
      "type": "VEC3"
    },
    {
      "bufferView": 1,
      "byteOffset": 19659600,
      "componentType": 5126,
      "count": 65532,
      "max": [
        0.9999172687530518,
        0.9999853372573853,
        0.9999998807907104
      ],
      "min": [
        -0.9999773502349854,
        -0.9999998807907104,
        -0.9999104738235474
      ],
      "type": "VEC3"
    },
    {
      "bufferView": 0,
      "byteOffset": 11363400,
      "componentType": 5125,
      "count": 302574,
      "type": "SCALAR"
    },
    {
      "bufferView": 1,
      "byteOffset": 20445984,
      "componentType": 5126,
      "count": 65532,
      "max": [
        0.700801432132721,
        0.29403311014175415,
        1.4783804416656494
      ],
      "min": [
        -0.7007930874824524,
        -0.6471707820892334,
        -5.520877361297607
      ],
      "type": "VEC3"
    },
    {
      "bufferView": 1,
      "byteOffset": 21232368,
      "componentType": 5126,
      "count": 65532,
      "max": [
        0.9999886155128479,
        0.9999992251396179,
        0.9999998807907104
      ],
      "min": [
        -0.9999887943267822,
        -0.999984085559845,
        -0.9977819323539734
      ],
      "type": "VEC3"
    },
    {
      "bufferView": 0,
      "byteOffset": 12573696,
      "componentType": 5125,
      "count": 271569,
      "type": "SCALAR"
    },
    {
      "bufferView": 1,
      "byteOffset": 22018752,
      "componentType": 5126,
      "count": 65532,
      "max": [
        0.8465677499771118,
        0.44790178537368774,
        1.478124976158142
      ],
      "min": [
        -1.8897793292999268,
        -0.8102819323539734,
        -5.551300525665283
      ],
      "type": "VEC3"
    },
    {
      "bufferView": 1,
      "byteOffset": 22805136,
      "componentType": 5126,
      "count": 65532,
      "max": [
        0.9999968409538269,
        0.9999558329582214,
        0.9993876218795776
      ],
      "min": [
        -0.9999009966850281,
        -0.9999982714653015,
        -0.9999327063560486
      ],
      "type": "VEC3"
    },
    {
      "bufferView": 0,
      "byteOffset": 13659972,
      "componentType": 5125,
      "count": 213570,
      "type": "SCALAR"
    },
    {
      "bufferView": 1,
      "byteOffset": 23591520,
      "componentType": 5126,
      "count": 65532,
      "max": [
        1.8457716703414917,
        0.415019690990448,
        1.4776272773742676
      ],
      "min": [
        4.189999799564248e-06,
        -0.8104557991027832,
        -5.551300525665283
      ],
      "type": "VEC3"
    },
    {
      "bufferView": 1,
      "byteOffset": 24377904,
      "componentType": 5126,
      "count": 65532,
      "max": [
        0.9999997019767761,
        0.9999964237213135,
        0.9988299608230591
      ],
      "min": [
        -0.9999762177467346,
        -0.9999995231628418,
        -0.9999463558197021
      ],
      "type": "VEC3"
    },
    {
      "bufferView": 0,
      "byteOffset": 14514252,
      "componentType": 5125,
      "count": 234222,
      "type": "SCALAR"
    },
    {
      "bufferView": 1,
      "byteOffset": 25164288,
      "componentType": 5126,
      "count": 23939,
      "max": [
        0.6908811926841736,
        0.4764641523361206,
        1.2885808944702148
      ],
      "min": [
        0.0029679699800908566,
        -0.5538869500160217,
        -1.9889466762542725
      ],
      "type": "VEC3"
    },
    {
      "bufferView": 1,
      "byteOffset": 25451556,
      "componentType": 5126,
      "count": 23939,
      "max": [
        0.9999997019767761,
        0.9996742606163025,
        0.9987345933914185
      ],
      "min": [
        -0.8672751188278198,
        -0.9999846816062927,
        -0.9998376369476318
      ],
      "type": "VEC3"
    },
    {
      "bufferView": 0,
      "byteOffset": 15451140,
      "componentType": 5125,
      "count": 73515,
      "type": "SCALAR"
    },
    {
      "bufferView": 1,
      "byteOffset": 25738824,
      "componentType": 5126,
      "count": 49156,
      "max": [
        0.20486626029014587,
        -0.3082714080810547,
        1.0726425647735596
      ],
      "min": [
        -0.20485788583755493,
        -0.499006450176239,
        0.8829877972602844
      ],
      "type": "VEC3"
    },
    {
      "bufferView": 1,
      "byteOffset": 26328696,
      "componentType": 5126,
      "count": 49156,
      "max": [
        1.0,
        1.0,
        1.0
      ],
      "min": [
        -1.0,
        -0.9999604821205139,
        -1.0
      ],
      "type": "VEC3"
    },
    {
      "bufferView": 0,
      "byteOffset": 15745200,
      "componentType": 5125,
      "count": 294912,
      "type": "SCALAR"
    }
  ],
  "asset": {
    "extras": {
      "author": "ToxicSmoke (https://sketchfab.com/ToxicSmoke)",
      "license": "CC-BY-4.0 (http://creativecommons.org/licenses/by/4.0/)",
      "source": "https://sketchfab.com/3d-models/basic-male-model-af32da689e234a26aaf2d267618cadc5",
      "title": "Basic male model"
    },
    "generator": "Sketchfab-12.68.0",
    "version": "2.0"
  },
  "bufferViews": [
    {
      "buffer": 0,
      "byteLength": 16924848,
      "name": "floatBufferViews",
      "target": 34963
    },
    {
      "buffer": 0,
      "byteLength": 26918568,
      "byteOffset": 16924848,
      "byteStride": 12,
      "name": "floatBufferViews",
      "target": 34962
    }
  ],
  "buffers": [
    {
      "byteLength": 43843416,
      "uri": "scene.bin"
    }
  ],
  "materials": [
    {
      "doubleSided": true,
      "name": "Scene_-_Root",
      "pbrMetallicRoughness": {
        "metallicFactor": 0.0,
        "roughnessFactor": 0.6
      }
    }
  ],
  "meshes": [
    {
      "name": "Object_0",
      "primitives": [
        {
          "attributes": {
            "NORMAL": 1,
            "POSITION": 0
          },
          "indices": 2,
          "material": 0,
          "mode": 4
        }
      ]
    },
    {
      "name": "Object_1",
      "primitives": [
        {
          "attributes": {
            "NORMAL": 4,
            "POSITION": 3
          },
          "indices": 5,
          "material": 0,
          "mode": 4
        }
      ]
    },
    {
      "name": "Object_2",
      "primitives": [
        {
          "attributes": {
            "NORMAL": 7,
            "POSITION": 6
          },
          "indices": 8,
          "material": 0,
          "mode": 4
        }
      ]
    },
    {
      "name": "Object_3",
      "primitives": [
        {
          "attributes": {
            "NORMAL": 10,
            "POSITION": 9
          },
          "indices": 11,
          "material": 0,
          "mode": 4
        }
      ]
    },
    {
      "name": "Object_4",
      "primitives": [
        {
          "attributes": {
            "NORMAL": 13,
            "POSITION": 12
          },
          "indices": 14,
          "material": 0,
          "mode": 4
        }
      ]
    },
    {
      "name": "Object_5",
      "primitives": [
        {
          "attributes": {
            "NORMAL": 16,
            "POSITION": 15
          },
          "indices": 17,
          "material": 0,
          "mode": 4
        }
      ]
    },
    {
      "name": "Object_6",
      "primitives": [
        {
          "attributes": {
            "NORMAL": 19,
            "POSITION": 18
          },
          "indices": 20,
          "material": 0,
          "mode": 4
        }
      ]
    },
    {
      "name": "Object_7",
      "primitives": [
        {
          "attributes": {
            "NORMAL": 22,
            "POSITION": 21
          },
          "indices": 23,
          "material": 0,
          "mode": 4
        }
      ]
    },
    {
      "name": "Object_8",
      "primitives": [
        {
          "attributes": {
            "NORMAL": 25,
            "POSITION": 24
          },
          "indices": 26,
          "material": 0,
          "mode": 4
        }
      ]
    },
    {
      "name": "Object_9",
      "primitives": [
        {
          "attributes": {
            "NORMAL": 28,
            "POSITION": 27
          },
          "indices": 29,
          "material": 0,
          "mode": 4
        }
      ]
    },
    {
      "name": "Object_10",
      "primitives": [
        {
          "attributes": {
            "NORMAL": 31,
            "POSITION": 30
          },
          "indices": 32,
          "material": 0,
          "mode": 4
        }
      ]
    },
    {
      "name": "Object_11",
      "primitives": [
        {
          "attributes": {
            "NORMAL": 34,
            "POSITION": 33
          },
          "indices": 35,
          "material": 0,
          "mode": 4
        }
      ]
    },
    {
      "name": "Object_12",
      "primitives": [
        {
          "attributes": {
            "NORMAL": 37,
            "POSITION": 36
          },
          "indices": 38,
          "material": 0,
          "mode": 4
        }
      ]
    },
    {
      "name": "Object_13",
      "primitives": [
        {
          "attributes": {
            "NORMAL": 40,
            "POSITION": 39
          },
          "indices": 41,
          "material": 0,
          "mode": 4
        }
      ]
    },
    {
      "name": "Object_14",
      "primitives": [
        {
          "attributes": {
            "NORMAL": 43,
            "POSITION": 42
          },
          "indices": 44,
          "material": 0,
          "mode": 4
        }
      ]
    },
    {
      "name": "Object_15",
      "primitives": [
        {
          "attributes": {
            "NORMAL": 46,
            "POSITION": 45
          },
          "indices": 47,
          "material": 0,
          "mode": 4
        }
      ]
    },
    {
      "name": "Object_16",
      "primitives": [
        {
          "attributes": {
            "NORMAL": 49,
            "POSITION": 48
          },
          "indices": 50,
          "material": 0,
          "mode": 4
        }
      ]
    },
    {
      "name": "Object_17",
      "primitives": [
        {
          "attributes": {
            "NORMAL": 52,
            "POSITION": 51
          },
          "indices": 53,
          "material": 0,
          "mode": 4
        }
      ]
    }
  ],
  "nodes": [
    {
      "children": [
        1
      ],
      "matrix": [
        1.0,
        0.0,
        0.0,
        0.0,
        0.0,
        2.220446049250313e-16,
        -1.0,
        0.0,
        0.0,
        1.0,
        2.220446049250313e-16,
        0.0,
        0.0,
        0.0,
        0.0,
        1.0
      ],
      "name": "Sketchfab_model"
    },
    {
      "children": [
        2,
        3,
        4,
        5,
        6,
        7,
        8,
        9,
        10,
        11,
        12,
        13,
        14,
        15,
        16,
        17,
        18,
        19
      ],
      "name": "Male.OBJ.cleaner.materialmerger.gles"
    },
    {
      "mesh": 0,
      "name": "Object_2"
    },
    {
      "mesh": 1,
      "name": "Object_3"
    },
    {
      "mesh": 2,
      "name": "Object_4"
    },
    {
      "mesh": 3,
      "name": "Object_5"
    },
    {
      "mesh": 4,
      "name": "Object_6"
    },
    {
      "mesh": 5,
      "name": "Object_7"
    },
    {
      "mesh": 6,
      "name": "Object_8"
    },
    {
      "mesh": 7,
      "name": "Object_9"
    },
    {
      "mesh": 8,
      "name": "Object_10"
    },
    {
      "mesh": 9,
      "name": "Object_11"
    },
    {
      "mesh": 10,
      "name": "Object_12"
    },
    {
      "mesh": 11,
      "name": "Object_13"
    },
    {
      "mesh": 12,
      "name": "Object_14"
    },
    {
      "mesh": 13,
      "name": "Object_15"
    },
    {
      "mesh": 14,
      "name": "Object_16"
    },
    {
      "mesh": 15,
      "name": "Object_17"
    },
    {
      "mesh": 16,
      "name": "Object_18"
    },
    {
      "mesh": 17,
      "name": "Object_19"
    }
  ],
  "scene": 0,
  "scenes": [
    {
      "name": "Sketchfab_Scene",
      "nodes": [
        0
      ]
    }
  ]
}
